cover
 
http://img593.imageshack.us/img593/16/coversp.jpg

Format;Avi

File Size:852mb

Video: ID : 0
Format : MPEG-4 Visual
Format profile : Advanced Simple@L5
Format settings, BVOP : Yes
Format settings, QPel : No
Format settings, GMC : No warppoints
Format settings, Matrix : Default (H.263)
Codec ID : XVID
Codec ID/Hint : XviD
Duration : 1h 33mn
Bit rate : 888 Kbps
Width : 720 pixels
Height : 400 pixels
Display aspect ratio : 16:9
Frame rate : 23.976 fps
Color space : YUV
Chroma subsampling : 4:2:0
Bit depth : 8 bits
Scan type : Progressive
Bits/(Pixel*Frame) : 0.129
Stream size : 595 MiB (69%)
Writing library : XviD 1.2.1 (UTC 2008-12-04)


Audio: ID : 1
Format : AC-3
Format/Info : Audio Coding 3
Mode extension : CM (complete main)
Codec ID : 2000
Duration : 1h 33mn
Bit rate mode : Constant
Bit rate : 384 Kbps
Channel(s) : 6 channels
Channel positions : Front: L C R, Side: L R, LFE
Sampling rate : 48.0 KHz
Bit depth : 16 bits
Stream size : 257 MiB (30%)
Alignment : Aligned on interleaves
Interleave, duration : 32 ms (0.77 video frame)

Duration:1:33

Release Date:2010

Language:English


Plot: U.S. soldier John Carter gets transported to Mars, where be becomes caught between two factions of warring aliens in this adaptation of Edgar Rice Burroughs' classic sci-fi novel.


Cast: Antonio Sabato Jr. Antonio Sabato Jr. ...
John Carter
Traci Lords Traci Lords ...
Dejah Thoris
Matt Lasky Matt Lasky ...
Tars Tarkas
Chacko Vadaketh Chacko Vadaketh ...
Sarka / Sab Than
Mitchell Gordon Mitchell Gordon ...
Tal Hajus
Noelle Perris Noelle Perris ...
Sola

screens
 
http://img139.imageshack.us/img139/4493/vlcsnap2010111215h37m34.png 
http://img404.imageshack.us/img404/4554/vlcsnap2010111215h38m48.png 
http://img404.imageshack.us/img404/4554/vlcsnap2010111215h38m48.png 
http://img824.imageshack.us/img824/1/vlcsnap2010111215h42m00.png 
http://img593.imageshack.us/img593/2948/vlcsnap2010111215h38m06.png 
http://img404.imageshack.us/img404/8296/vlcsnap2010111215h36m32.png 
http://img168.imageshack.us/img168/8103/vlcsnap2010111215h42m44.png 
http://img577.imageshack.us/img577/3082/vlcsnap2010111215h41m14.png